<svg width="40" height="40" viewBox="0 0 40 40" fill="none" xmlns="http://www.w3.org/2000/svg">
<g id="bx:bxs-store-alt">
<path id="Vector" d="M31.6667 3.33331H8.33335C5.57668 3.33331 3.33335 5.57665 3.33335 8.33331V13.0516C3.33335 14.8066 3.97001 16.4016 5.00001 17.6283V33.3333C5.00001 33.7753 5.17561 34.1993 5.48817 34.5118C5.80073 34.8244 6.22465 35 6.66668 35H20C20.442 35 20.866 34.8244 21.1785 34.5118C21.4911 34.1993 21.6667 33.7753 21.6667 33.3333V25H28.3333V33.3333C28.3333 33.7753 28.5089 34.1993 28.8215 34.5118C29.1341 34.8244 29.558 35 30 35H33.3333C33.7754 35 34.1993 34.8244 34.5119 34.5118C34.8244 34.1993 35 33.7753 35 33.3333V17.6266C36.03 16.4016 36.6667 14.8066 36.6667 13.05V8.33331C36.6667 5.57665 34.4233 3.33331 31.6667 3.33331ZM33.3333 8.33331V13.0516C33.3333 14.9516 31.9183 16.5716 30.1817 16.6633L30 16.6666C28.1617 16.6666 26.6667 15.1716 26.6667 13.3333V6.66665H31.6667C32.5867 6.66665 33.3333 7.41498 33.3333 8.33331ZM16.6667 13.3333V6.66665H23.3333V13.3333C23.3333 15.1716 21.8383 16.6666 20 16.6666C18.1617 16.6666 16.6667 15.1716 16.6667 13.3333ZM6.66668 8.33331C6.66668 7.41498 7.41335 6.66665 8.33335 6.66665H13.3333V13.3333C13.3333 15.1716 11.8383 16.6666 10 16.6666L9.81835 16.6616C8.08168 16.5716 6.66668 14.9516 6.66668 13.0516V8.33331ZM16.6667 26.6666H10V21.6666H16.6667V26.6666Z" fill="url(#paint0_linear_42_2918)"/>
</g>
<defs>
<linearGradient id="paint0_linear_42_2918" x1="20" y1="3.33331" x2="20" y2="35" gradientUnits="userSpaceOnUse">
<stop stop-color="#EA9769"/>
<stop offset="1" stop-color="#EA6969"/>
</linearGradient>
</defs>
</svg>
